<svg width="70" height="70" viewBox="0 0 70 70" fill="none" xmlns="http://www.w3.org/2000/svg">
<rect width="70" height="70" fill="#202020"/>
<path d="M54.5598 17.4816C51.0543 15.8701 47.2952 14.6828 43.3648 14.0029C43.2932 13.9897 43.2217 14.0225 43.1848 14.0881C42.7014 14.9496 42.1658 16.0734 41.7908 16.9568C37.5634 16.3227 33.3577 16.3227 29.217 16.9568C28.8419 16.0538 28.2869 14.9496 27.8013 14.0881C27.7644 14.0247 27.6929 13.9919 27.6214 14.0029C23.6931 14.6807 19.934 15.8679 16.4263 17.4816C16.3959 17.4947 16.3699 17.5166 16.3526 17.545C9.22236 28.2173 7.26907 38.6272 8.22729 48.9081C8.23162 48.9584 8.25981 49.0065 8.29883 49.0371C13.0032 52.4983 17.5602 54.5996 22.0325 55.9923C22.1041 56.0142 22.1799 55.988 22.2255 55.9289C23.2834 54.4815 24.2265 52.9554 25.035 51.3504C25.0828 51.2564 25.0372 51.1449 24.9397 51.1077C23.4438 50.5392 22.0195 49.8461 20.6494 49.059C20.541 48.9956 20.5323 48.8403 20.632 48.766C20.9204 48.5495 21.2088 48.3243 21.4841 48.0969C21.5339 48.0554 21.6033 48.0466 21.6618 48.0728C30.6629 52.1901 40.4077 52.1901 49.3026 48.0728C49.3612 48.0444 49.4306 48.0532 49.4826 48.0947C49.7579 48.3221 50.0463 48.5495 50.3368 48.766C50.4365 48.8403 50.4299 48.9956 50.3216 49.059C48.9515 49.8614 47.5271 50.5392 46.0291 51.1056C45.9316 51.1427 45.8882 51.2564 45.9359 51.3504C46.7618 52.9531 47.7049 54.4793 48.7433 55.9268C48.7867 55.988 48.8647 56.0142 48.9363 55.9923C53.4303 54.5996 57.9873 52.4983 62.6916 49.0371C62.7328 49.0065 62.7589 48.9606 62.7632 48.9103C63.91 37.0245 60.8424 26.6999 54.6313 17.5471C54.6161 17.5166 54.5902 17.4947 54.5598 17.4816ZM26.3792 42.6481C23.6693 42.6481 21.4363 40.1556 21.4363 37.0945C21.4363 34.0333 23.626 31.5408 26.3792 31.5408C29.1541 31.5408 31.3654 34.0552 31.322 37.0945C31.322 40.1556 29.1324 42.6481 26.3792 42.6481ZM44.6546 42.6481C41.9448 42.6481 39.7118 40.1556 39.7118 37.0945C39.7118 34.0333 41.9014 31.5408 44.6546 31.5408C47.4296 31.5408 49.6408 34.0552 49.5975 37.0945C49.5975 40.1556 47.4296 42.6481 44.6546 42.6481Z" fill="white"/>
</svg>
