<svg width="102" height="102" viewBox="0 0 102 102" fill="none" xmlns="http://www.w3.org/2000/svg">
<rect width="102" height="102" fill="#202020"/>
<path d="M89.25 12.75V8.5H63.75V12.75H59.5V25.5H55.25V34H46.75V38.25H38.25V34H12.75V38.25H8.5V63.75H12.75V68H38.25V63.75H46.75V68H55.25V76.5H59.5V89.25H63.75V93.5H89.25V89.25H93.5V63.75H89.25V59.5H68V63.75H63.75V59.5H55.25V55.25H51V46.75H55.25V42.5H63.75V38.25H68V42.5H89.25V38.25H93.5V12.75H89.25ZM85 29.75H80.75V34H72.25V29.75H68V21.25H72.25V17H80.75V21.25H85V29.75ZM29.75 55.25V59.5H21.25V55.25H17V46.75H21.25V42.5H29.75V46.75H34V55.25H29.75ZM72.25 68H80.75V72.25H85V80.75H80.75V85H72.25V80.75H68V72.25H72.25V68Z" fill="white"/>
</svg>
