<svg width="70" height="70" viewBox="0 0 70 70" fill="none" xmlns="http://www.w3.org/2000/svg">
<rect width="70" height="70" fill="#202020"/>
<path d="M35.4995 8C20.3121 8 8 20.3575 8 35.601C8 48.5448 16.879 59.4063 28.8567 62.3895V44.0359H23.1863V35.601H28.8567V31.9665C28.8567 22.5722 33.0927 18.2179 42.2819 18.2179C44.0243 18.2179 47.0305 18.5613 48.2603 18.9035V26.549C47.6113 26.4805 46.4838 26.4463 45.0836 26.4463C40.5748 26.4463 38.8324 28.1609 38.8324 32.6179V35.601H47.8148L46.2715 44.0359H38.8324V63C52.449 61.3495 63 49.7129 63 35.601C62.9989 20.3575 50.6868 8 35.4995 8Z" fill="white"/>
</svg>
