<svg width="55" height="55" viewBox="0 0 55 55" fill="none" xmlns="http://www.w3.org/2000/svg">
<g clip-path="url(#clip0_74_92)">
<path d="M27.5 4.95215C34.8477 4.95215 35.7178 4.98437 38.6074 5.11328C41.293 5.23144 42.7432 5.68262 43.71 6.05859C44.9883 6.55273 45.9121 7.1543 46.8682 8.11035C47.835 9.07715 48.4258 9.99024 48.9199 11.2686C49.2959 12.2354 49.7471 13.6963 49.8652 16.3711C49.9941 19.2715 50.0264 20.1416 50.0264 27.4785C50.0264 34.8262 49.9941 35.6963 49.8652 38.5859C49.7471 41.2715 49.2959 42.7217 48.9199 43.6885C48.4258 44.9668 47.8242 45.8906 46.8682 46.8467C45.9014 47.8135 44.9883 48.4043 43.71 48.8984C42.7432 49.2744 41.2822 49.7256 38.6074 49.8438C35.707 49.9727 34.8369 50.0049 27.5 50.0049C20.1523 50.0049 19.2822 49.9727 16.3926 49.8438C13.707 49.7256 12.2568 49.2744 11.29 48.8984C10.0117 48.4043 9.08789 47.8027 8.13184 46.8467C7.16504 45.8799 6.57422 44.9668 6.08008 43.6885C5.7041 42.7217 5.25293 41.2607 5.13477 38.5859C5.00586 35.6856 4.97363 34.8154 4.97363 27.4785C4.97363 20.1309 5.00586 19.2607 5.13477 16.3711C5.25293 13.6855 5.7041 12.2354 6.08008 11.2686C6.57422 9.99024 7.17578 9.06641 8.13184 8.11035C9.09863 7.14356 10.0117 6.55273 11.29 6.05859C12.2568 5.68262 13.7178 5.23144 16.3926 5.11328C19.2822 4.98437 20.1523 4.95215 27.5 4.95215ZM27.5 0C20.0342 0 19.0996 0.0322266 16.167 0.161133C13.2451 0.290039 11.2363 0.762695 9.49609 1.43945C7.68066 2.14844 6.14453 3.08301 4.61914 4.61914C3.08301 6.14453 2.14844 7.68067 1.43945 9.48535C0.762695 11.2363 0.290039 13.2344 0.161133 16.1562C0.0322266 19.0996 0 20.0342 0 27.5C0 34.9658 0.0322266 35.9004 0.161133 38.833C0.290039 41.7549 0.762695 43.7637 1.43945 45.5039C2.14844 47.3193 3.08301 48.8555 4.61914 50.3809C6.14453 51.9062 7.68067 52.8516 9.48535 53.5498C11.2363 54.2266 13.2344 54.6992 16.1563 54.8281C19.0889 54.957 20.0234 54.9893 27.4893 54.9893C34.9551 54.9893 35.8897 54.957 38.8223 54.8281C41.7441 54.6992 43.7529 54.2266 45.4932 53.5498C47.2979 52.8516 48.834 51.9062 50.3594 50.3809C51.8848 48.8555 52.8301 47.3193 53.5283 45.5147C54.2051 43.7637 54.6777 41.7656 54.8066 38.8438C54.9356 35.9111 54.9678 34.9766 54.9678 27.5107C54.9678 20.0449 54.9356 19.1104 54.8066 16.1777C54.6777 13.2559 54.2051 11.2471 53.5283 9.50684C52.8516 7.68066 51.917 6.14453 50.3809 4.61914C48.8555 3.09375 47.3193 2.14844 45.5147 1.4502C43.7637 0.773438 41.7656 0.300781 38.8438 0.171875C35.9004 0.0322266 34.9658 0 27.5 0Z" fill="white"/>
<path d="M27.5 13.375C19.7012 13.375 13.374 19.7021 13.374 27.501C13.374 35.2998 19.7012 41.627 27.5 41.627C35.2988 41.627 41.626 35.2998 41.626 27.501C41.626 19.7021 35.2988 13.375 27.5 13.375ZM27.5 36.6641C22.4404 36.6641 18.3369 32.5605 18.3369 27.501C18.3369 22.4414 22.4404 18.3379 27.5 18.3379C32.5596 18.3379 36.6631 22.4414 36.6631 27.501C36.6631 32.5605 32.5596 36.6641 27.5 36.6641Z" fill="white"/>
<path d="M45.4824 12.8154C45.4824 14.6416 44 16.1133 42.1846 16.1133C40.3584 16.1133 38.8867 14.6309 38.8867 12.8154C38.8867 10.9893 40.3691 9.51758 42.1846 9.51758C44 9.51758 45.4824 11 45.4824 12.8154Z" fill="white"/>
</g>
<defs>
<clipPath id="clip0_74_92">
<rect width="55" height="55" fill="white"/>
</clipPath>
</defs>
</svg>
